# xmcd
#
# Track frame offsets: 
#        150
#        38709
#        61896
#        86558
#        104167
#        128955
#        152422
#        168498
#        188822
#        213695
#
# Disc length: 3113 seconds
#
# Revision: 0
# Processed by: cddbd v1.5.2PL0 Copyright (c) Steve Scherf et al.
# Submitted via: ExactAudioCopy v0.99pb5
#
DISCID=890c270a
DTITLE=Fink - Resurgam
DYEAR=2017
DGENRE=Blues Fusion
TTITLE0=Resurgam
TTITLE1=Day 22
TTITLE2=Cracks Appear
TTITLE3=Word To The Wise
TTITLE4=Not Everything Was Better In The Past
TTITLE5=The Determined Cut
TTITLE6=Godhead
TTITLE7=This Isn't A Mistake
TTITLE8=Covering Your Tracks
TTITLE9=There's Just Something About You
EXTD=
EXTT0=
EXTT1=
EXTT2=
EXTT3=
EXTT4=
EXTT5=
EXTT6=
EXTT7=
EXTT8=
EXTT9=
PLAYORDER=
